<svg width="580" height="220" viewBox="0 0 580 220" fill="none" xmlns="http://www.w3.org/2000/svg" role="img" aria-labelledby="title">
  <title id="title">Responsive Dashboard</title><defs><linearGradient id="bg" x1="0" y1="0" x2="580" y2="220"><stop stop-color="#0B1220"/><stop offset="1" stop-color="#132231"/></linearGradient></defs>
  <rect x="1" y="1" width="578" height="218" rx="25" fill="url(#bg)" stroke="#4FD1C5" stroke-opacity=".62" stroke-width="2"/>
  <circle cx="104" cy="108" r="72" fill="#4FD1C5" fill-opacity=".07"/>
  <rect x="49" y="63" width="110" height="83" rx="13" fill="#13283B" stroke="#4FD1C5" stroke-width="3"/><rect x="60" y="75" width="27" height="59" rx="7" fill="#4FD1C5" fill-opacity=".22"/><rect x="96" y="75" width="51" height="22" rx="6" fill="#7C6CF2" fill-opacity=".7"/><path d="M98 124L109 111L120 117L143 101" stroke="#F4C95D" stroke-width="4" stroke-linecap="round" stroke-linejoin="round"/>
  <path d="M52 155H156" stroke="#4FD1C5" stroke-opacity=".3" stroke-width="3" stroke-linecap="round"><animate attributeName="stroke-dasharray" values="8 8;22 4;8 8" dur="4s" repeatCount="indefinite"/></path>
  <text x="211" y="67" fill="#F8F4EA" font-family="Segoe UI, Arial" font-size="27" font-weight="800">responsive_dashboard</text><text x="211" y="98" fill="#9EABC4" font-family="Segoe UI, Arial" font-size="14" letter-spacing="1.1">ONE UI · EVERY SCREEN</text>
  <rect x="211" y="124" width="72" height="28" rx="14" fill="#4FD1C5" fill-opacity=".12"/><text x="247" y="143" text-anchor="middle" fill="#8CE8DF" font-family="Segoe UI, Arial" font-size="11" font-weight="700">FLUTTER</text><rect x="291" y="124" width="103" height="28" rx="14" fill="#7C6CF2" fill-opacity=".14"/><text x="342.5" y="143" text-anchor="middle" fill="#AFA7FF" font-family="Segoe UI, Arial" font-size="11" font-weight="700">RESPONSIVE</text><rect x="402" y="124" width="66" height="28" rx="14" fill="#FF6B5A" fill-opacity=".12"/><text x="435" y="143" text-anchor="middle" fill="#FF9B8F" font-family="Segoe UI, Arial" font-size="11" font-weight="700">CHARTS</text>
  <text x="211" y="188" fill="#4FD1C5" font-family="Segoe UI, Arial" font-size="13" font-weight="700" letter-spacing="1">OPEN PROJECT  ↗</text>
</svg>
