<svg width="580" height="250" viewBox="0 0 580 250" xmlns="http://www.w3.org/2000/svg" role="img"><title>Nex News</title><defs><linearGradient id="g" x1="0" x2="1" y2="1"><stop stop-color="#00B4FE"/><stop offset="1" stop-color="#F55184"/></linearGradient><pattern id="p" width="12" height="12" patternUnits="userSpaceOnUse"><path d="M0 2h12" stroke="#0F1562" opacity=".18"/></pattern></defs><rect width="580" height="250" rx="22" fill="url(#g)"/><path d="M0 0h176l84 250H0z" fill="#0F1562"/><path d="M417 0h163v250L372 197Z" fill="url(#p)"/>
<g transform="rotate(-4 301 92)"><path d="M111 41l372-12 11 127-377 16z" fill="#FEFEFD"/><text x="146" y="103" font-family="Arial Black,Arial" font-size="48" font-weight="900" fill="#00B4FE">NEX</text><text x="246" y="103" font-family="Arial Black,Arial" font-size="48" font-weight="900" fill="#F55184">NEWS</text><path d="M146 122h260" stroke="#0F1562" stroke-width="5"/><text x="147" y="146" font-family="Arial" font-size="13" font-weight="800" fill="#0F1562" letter-spacing="2">HEADLINES IN MOTION</text></g><g transform="rotate(3 340 205)"><rect x="153" y="181" width="374" height="47" fill="#FBAD5E"/><text x="340" y="211" text-anchor="middle" font-family="Arial" font-size="14" font-weight="900" fill="#0F1562" letter-spacing="2">TOP STORIES · CATEGORIES · WEBVIEW ↗</text></g><g stroke="#FEFEFD" stroke-width="5"><path d="M42 57h62M42 77h82M42 97h52"/></g></svg>
