<svg width="1280" height="300" viewBox="0 0 1280 300" xmlns="http://www.w3.org/2000/svg" role="img"><title>Build learn ship repeat</title><defs><pattern id="paper" width="18" height="18" patternUnits="userSpaceOnUse"><circle cx="3" cy="3" r="1.2" fill="#151515" opacity=".17"/></pattern><filter id="s"><feDropShadow dx="4" dy="5" stdDeviation="3" flood-opacity=".25"/></filter></defs><rect width="1280" height="300" rx="24" fill="#F2E9D8"/><path d="M0 0h265l88 300H0Z" fill="#151515"/><path d="M1040 0h240v300H934Z" fill="#FF5C4D"/><path d="M315 0h500l-73 300H390z" fill="url(#paper)"/>
<g transform="rotate(-4 361 74)" filter="url(#s)"><rect x="129" y="40" width="465" height="72" fill="#2E5BFF"/><text x="361" y="88" text-anchor="middle" font-family="Arial Black,Arial" font-size="35" fill="#FFF" letter-spacing="2">BUILD · LEARN</text></g><g transform="rotate(3 744 116)" filter="url(#s)"><path d="M532 79h422l19 74-436 16z" fill="#F6C84C"/><text x="744" y="132" text-anchor="middle" font-family="Arial Black,Arial" font-size="34" fill="#151515" letter-spacing="2">SHIP · REPEAT</text></g>
<g transform="translate(133 182)">
<g fill="#62B6A4"><rect x="0" y="36" width="22" height="22"/><rect x="28" y="8" width="22" height="22"/><rect x="56" y="64" width="22" height="22"/><rect x="84" y="36" width="22" height="22"/><rect x="112" width="22" height="22"/><rect x="140" y="36" width="22" height="22"/><rect x="168" y="8" width="22" height="22"/><rect x="196" y="64" width="22" height="22"/><rect x="224" y="36" width="22" height="22"/><rect x="252" y="8" width="22" height="22"/><rect x="280" y="36" width="22" height="22"/></g>
<g fill="#2E5BFF"><rect x="324" width="22" height="22"/><rect x="352" y="36" width="22" height="22"/><rect x="380" y="8" width="22" height="22"/><rect x="408" y="64" width="22" height="22"/><rect x="436" y="36" width="22" height="22"/><rect x="464" y="8" width="22" height="22"/><rect x="492" y="36" width="22" height="22"/><rect x="520" width="22" height="22"/></g>
<g fill="#FF5C4D"><rect x="564" y="64" width="22" height="22"/><rect x="592" y="36" width="22" height="22"/><rect x="620" y="8" width="22" height="22"/><rect x="648" width="22" height="22"/><rect x="676" y="36" width="22" height="22"/><rect x="704" y="8" width="22" height="22"/><rect x="732" y="64" width="22" height="22"/><rect x="760" y="36" width="22" height="22"/></g>
<g fill="#F6C84C"><rect x="804" y="8" width="22" height="22"/><rect x="832" y="36" width="22" height="22"/><rect x="860" width="22" height="22"/><rect x="888" y="64" width="22" height="22"/><rect x="916" y="36" width="22" height="22"/></g>
<animateTransform attributeName="transform" type="translate" values="133 182;141 182;133 182" dur="5s" repeatCount="indefinite"/>
</g><text x="1114" y="260" font-family="Arial" font-size="13" font-weight="900" fill="#FFF" letter-spacing="3">CONSISTENCY</text></svg>
