<svg width="1280" height="300" viewBox="0 0 1280 300" xmlns="http://www.w3.org/2000/svg" role="img" aria-labelledby="t">
 <title id="t">About Ahmed Elsaadany</title><defs><pattern id="p" width="10" height="10" patternUnits="userSpaceOnUse"><circle cx="2" cy="2" r="1" fill="#151515" opacity=".2"/></pattern><filter id="s"><feDropShadow dx="3" dy="5" stdDeviation="3" flood-opacity=".2"/></filter></defs>
 <rect width="1280" height="300" rx="24" fill="#151515"/><path d="M0 34L505 0L470 300H0Z" fill="#F2E9D8"/><path d="M1020 0h260v300H935Z" fill="#2E5BFF"/><path d="M965 0h180l-76 174-182-20z" fill="url(#p)"/>
 <g filter="url(#s)" transform="rotate(-2 350 120)"><path d="M62 52L707 29L719 176L77 198Z" fill="#FFFDF7"/><text x="105" y="105" font-family="Arial Black, Arial" font-size="29" font-weight="900" fill="#151515">COMPUTER SCIENCE GRADUATE</text><text x="105" y="143" font-family="Arial" font-size="18" font-weight="700" fill="#2E5BFF" letter-spacing="1.5">SOFTWARE ENGINEERING · NEW MANSOURA UNIVERSITY</text></g>
 <g transform="rotate(2 600 230)"><rect x="170" y="207" width="650" height="58" fill="#F6C84C"/><text x="495" y="243" text-anchor="middle" font-family="Arial" font-size="19" font-weight="900" fill="#151515">POLISHED, HUMAN-CENTERED MOBILE PRODUCTS.</text></g>
 <g transform="rotate(-4 896 91)" filter="url(#s)"><rect x="774" y="56" width="244" height="70" fill="#FF5C4D"/><text x="896" y="87" text-anchor="middle" font-family="Arial Black, Arial" font-size="25" fill="#FFFDF7">GPA 3.54 / 4.00</text><text x="896" y="111" text-anchor="middle" font-family="Arial" font-size="13" font-weight="800" fill="#FFFDF7" letter-spacing="2">EXCELLENT · HIGH HONORS</text></g>
 <g transform="rotate(3 989 210)" filter="url(#s)"><path d="M832 164h315l-18 86H850Z" fill="#62B6A4"/><text x="989" y="208" text-anchor="middle" font-family="Arial Black, Arial" font-size="33" fill="#151515">RANK #5</text><text x="989" y="232" text-anchor="middle" font-family="Arial" font-size="13" font-weight="800" fill="#151515" letter-spacing="2">CS DEPARTMENT</text></g>
 <path d="M1177 183c40 16 40 52 0 70s-67-15-45-44 69-18 76 8" fill="none" stroke="#F6C84C" stroke-width="7" stroke-linecap="round"/>
</svg>
