<svg width="1200" height="176" viewBox="0 0 1200 176" fill="none" xmlns="http://www.w3.org/2000/svg" role="img" aria-labelledby="title">
  <title id="title">Ahmed's impact at a glance</title>
  <defs><linearGradient id="bg" x1="0" y1="0" x2="1200" y2="176" gradientUnits="userSpaceOnUse"><stop stop-color="#0B1220"/><stop offset="1" stop-color="#111C32"/></linearGradient><linearGradient id="line" x1="30" y1="0" x2="1170" y2="0" gradientUnits="userSpaceOnUse"><stop stop-color="#FF6B5A"/><stop offset=".5" stop-color="#7C6CF2"/><stop offset="1" stop-color="#4FD1C5"/></linearGradient></defs>
  <rect width="1200" height="176" rx="25" fill="url(#bg)"/>
  <g font-family="Segoe UI, Arial" text-anchor="middle">
    <g transform="translate(120 0)"><circle cx="0" cy="42" r="16" fill="#FF6B5A" fill-opacity=".16"/><circle cx="0" cy="42" r="5" fill="#FF6B5A"><animate attributeName="r" values="4;6;4" dur="2.2s" repeatCount="indefinite"/></circle><text y="105" fill="#F8F4EA" font-size="32" font-weight="800">#5</text><text y="135" fill="#8E9AB3" font-size="12" font-weight="700" letter-spacing="2">CS RANK</text></g>
    <g transform="translate(360 0)"><rect x="-18" y="26" width="36" height="32" rx="10" fill="#F4C95D" fill-opacity=".16"/><path d="M-8 43L-1 50L10 34" stroke="#F4C95D" stroke-width="4" stroke-linecap="round"/><text y="105" fill="#F8F4EA" font-size="32" font-weight="800">2× #1</text><text y="135" fill="#8E9AB3" font-size="12" font-weight="700" letter-spacing="2">HACKATHONS</text></g>
    <g transform="translate(600 0)"><path d="M0 24L7 36L21 39L11 49L13 63L0 56L-13 63L-11 49L-21 39L-7 36Z" fill="#7C6CF2" fill-opacity=".75"/><text y="105" fill="#F8F4EA" font-size="32" font-weight="800">#3</text><text y="135" fill="#8E9AB3" font-size="12" font-weight="700" letter-spacing="2">NATIONWIDE</text></g>
    <g transform="translate(840 0)"><circle cx="0" cy="42" r="17" fill="#4FD1C5" fill-opacity=".14"/><path d="M-9 44L-2 51L11 34" stroke="#4FD1C5" stroke-width="4" stroke-linecap="round"/><text y="105" fill="#F8F4EA" font-size="32" font-weight="800">TOP 10</text><text y="135" fill="#8E9AB3" font-size="12" font-weight="700" letter-spacing="2">GRAD PROJECT</text></g>
    <g transform="translate(1080 0)"><circle cx="-8" cy="40" r="8" fill="#FF6B5A"/><circle cx="8" cy="40" r="8" fill="#4FD1C5"/><path d="M-20 58C-16 48-1 48 3 58M-3 58C1 48 16 48 20 58" stroke="#F8F4EA" stroke-width="2"/><text y="105" fill="#F8F4EA" font-size="32" font-weight="800">300+</text><text y="135" fill="#8E9AB3" font-size="12" font-weight="700" letter-spacing="2">STUDENTS</text></g>
  </g>
  <path d="M240 32V144M480 32V144M720 32V144M960 32V144" stroke="#30405C"/>
  <rect x="1" y="1" width="1198" height="174" rx="24" stroke="url(#line)" stroke-opacity=".55" stroke-width="2"/>
</svg>
